<svg version="1.2" xmlns="http://www.w3.org/2000/svg" viewBox="0 0 1000 496" width="1000" height="496">
	<style>
		.s0 { fill: #0d9488 } 
	</style>
	<path id="Path 0" class="s0" d="m694.25 34.51c-14.99 18.97-27.25 34.94-27.25 35.49 0 0.66 26.5 1 77.5 1h77.5v425h178c-0.03-419.82-0.2-444.14-1.6-449.5-0.87-3.3-3.19-9.15-5.18-13-2.47-4.8-6.14-9.53-11.66-15.02-5.98-5.95-10-8.97-15.56-11.69-4.13-2.01-10.99-4.36-15.25-5.22-6.76-1.37-21.88-1.57-118.5-1.56l-110.75 0.02zm-694.26 246.23c0 142.03 0.19 163.52 1.51 168.75 0.84 3.3 3.19 9.38 5.24 13.5 2.67 5.37 5.86 9.64 11.25 15.02 5.38 5.38 9.64 8.57 15.01 11.24 4.12 2.05 10.2 4.41 13.5 5.24 5 1.26 15.27 1.51 61.75 1.51l55.75-0.01 142.5-179.84 1 130.34c4.27 11.63 6.97 17.41 8.76 20.35 1.78 2.94 6.39 8.34 10.24 12 3.86 3.67 10.14 8.31 14 10.35 3.85 2.03 10.04 4.39 13.75 5.24 5.8 1.34 15.61 1.53 69.5 1.31l62.74-0.25c225.84-284.42 293.23-369.36 295.46-372.25l4.05-5.25h-158l-195.5 246.56-0.47-246.56-125.53 0.04-181 228.27-0.49-228.31h-125.01z"/>
</svg>